<svg width="48" height="48" viewBox="0 0 48 48" fill="none" xmlns="http://www.w3.org/2000/svg">
<path fill-rule="evenodd" clip-rule="evenodd" d="M24 0C19.6 0 15.4 1.7 12.3 4.8C9.2 7.9 7.5 12.1 7.5 16.5C7.5 18.5 8.2 21.1 9.2 23.7C10.2 26.4 11.6 29.4 13.2 32.3C16.2 38.2 19.7 43.8 21.5 46.6C21.8 47 22.1 47.4 22.6 47.6C23.1 47.8 23.5 48 24 48C24.5 48 25 47.9 25.4 47.6C25.8 47.3 26.2 47 26.5 46.6C28.3 43.8 31.8 38.2 34.8 32.3C36.3 29.4 37.7 26.4 38.8 23.7C39.8 21 40.5 18.5 40.5 16.5C40.5 12.1 38.8 7.9 35.7 4.8C32.6 1.7 28.4 0 24 0Z" fill="#FF0000"/>
</svg>
