<!--?xml version="1.0" standalone="no"?-->
              <svg id="sw-js-blob-svg" viewBox="0 0 100 100" xmlns="http://www.w3.org/2000/svg" version="1.1">
                    <defs> 
                        <linearGradient id="sw-gradient" x1="0" x2="1" y1="1" y2="0">
                            <stop id="stop1" stop-color="rgba(248, 117, 55, 1)" offset="0%"></stop>
                            <stop id="stop2" stop-color="rgba(255, 183, 3, 1)" offset="100%"></stop>
                        </linearGradient>
                    </defs>
                <path fill="url(#sw-gradient)" d="M8,-11.2C9.6,-8.2,9.6,-4.9,11.9,-0.8C14.2,3.4,18.8,8.4,20,16.5C21.2,24.5,19.1,35.5,13.4,38.3C7.6,41.1,-1.7,35.7,-6.5,29.1C-11.3,22.5,-11.5,14.6,-14.4,8.7C-17.2,2.8,-22.8,-1.1,-25.2,-7.4C-27.6,-13.7,-26.9,-22.5,-22.2,-24.9C-17.4,-27.4,-8.7,-23.6,-2.8,-20.3C3.2,-17,6.4,-14.2,8,-11.2Z" width="100%" height="100%" transform="translate(50 50)" style="transition: all 0.3s ease 0s;" stroke-width="0"></path>
              </svg>