<svg xmlns="http://www.w3.org/2000/svg" width="512" height="512" style="" viewBox="0 0 512 512" data-svgdocument="" id="_yG2vhvLQlfePrAC3cgtnH" class="fl-svgdocument" x="0" y="0" xmlns:xlink="http://www.w3.org/1999/xlink"><defs id="_KQCeRa1kjF5EEkl57u7jq" transform="matrix(0.965440583180426, 0, 0, 0.965440583180426, -27.806918376131776, 145.60440655312323)"/><g id="_G77tQqkvKaIjLPP1zvf6-" transform="matrix(0.8125000291101288, 0, 0, 0.8125000291101288, 49.37028040898907, 48.00000463427089)"><path id="_ydfe2HsHtWAndjEmzDht-" d="M85.31,51.6l-1.36-1.71a2.24,2.24,0,0,1-.38-2l2.13-7.21a3.22,3.22,0,0,0-1.47-3.74l-4.4-2.43a2,2,0,0,0-2.16.12l-.58.4a3.27,3.27,0,0,0-1.2,3.73L78,44.93a.6.6,0,0,1-.88.73l-.51-.35A3.28,3.28,0,0,0,73.37,45l-7.05,3.35a1.25,1.25,0,0,0-.51,1.78l.31.5a1.13,1.13,0,0,0,1.37.47l5.17-2a1.63,1.63,0,0,1,1.81.45,1.7,1.7,0,0,1,.3,1.77l-1.28,3.14A6.4,6.4,0,0,1,70.16,58l-1.32.77A9,9,0,0,1,57,56.17h0a1.14,1.14,0,0,0-1.31-.43l-.77.26a1.24,1.24,0,0,0-.78,1.45L55,61.37a.52.52,0,0,1-1,.34l-1.43-2.95a1.88,1.88,0,0,0-2.56-.89l-1.58.8a1.25,1.25,0,0,0-.62,1.46l1.33,4.6a8.48,8.48,0,0,0,5.23,5.68,7.94,7.94,0,0,0,6-.27l16.94-6.84a3.5,3.5,0,0,0,5.18-1.12l1.24-2.27,2-4.68A3.59,3.59,0,0,0,85.31,51.6Z" stroke="none" fill="#de852c" transform="matrix(2.3559587001800537, 0, 0, 2.3559587001800537, 136.16319274902344, 93.81596374511719)"/><path id="_GvLUf1wxrt-h0w8q-yvko" d="M63.79,46.55l1.89.13a3.54,3.54,0,0,0,3.43-2.1l.64-1.39a7.21,7.21,0,0,0,.66-2.83l.09-3.42a2.45,2.45,0,0,0-2.35-2.57l-4.34-.09a2.85,2.85,0,0,0-2.66,1.78l-2.11,5a.92.92,0,0,1-1.48.34l-1-1a8.26,8.26,0,0,0-2.84-1.77L45,35.44a1.16,1.16,0,0,0-1.46.66l-1.2,2.78A1.22,1.22,0,0,0,43,40.52l7.09,2.55a.59.59,0,0,1,.09,1l-4,2.48a2.13,2.13,0,0,1-2.43-.14l-7.55-5.9A1.13,1.13,0,0,0,35,40.43l-2.47,1.21a1.23,1.23,0,0,0-.39,1.91l4.19,4.9a.25.25,0,0,1-.3.38l-7.59-4a1.14,1.14,0,0,0-1.48.39l-2.12,3.12a1.23,1.23,0,0,0,.54,1.84l12,4.5a21.15,21.15,0,0,0,15,0l3.39-1.29a2.94,2.94,0,0,1,3.12,1l.85,1a5.69,5.69,0,0,0,6.63,1.65L71.15,55a1.24,1.24,0,0,0,.73-1.32l-.19-1.39a1.15,1.15,0,0,0-1.59-.93l-3.49,1.54A1.93,1.93,0,0,1,64,51.73L62.74,48A1.07,1.07,0,0,1,63.79,46.55Z" stroke="none" fill="#bf57d9" transform="matrix(2.3559587001800537, 0, 0, 2.3559587001800537, 137.67137145996094, 92.56665802001953)"/><path id="_ONgVWvkXzjiz_tI48VPQq" d="M75.59,67.27a1.13,1.13,0,0,0-1.49.15l-3,3.13h0a3.63,3.63,0,0,0-4.56-1.17l-6.25,3.06a9.41,9.41,0,0,1-6.3.73l-1.32-.31a9.11,9.11,0,0,1-6.76-7.11l-.84-4A3,3,0,0,0,43,59.36l-10.53-2.9a1.18,1.18,0,0,0-1.46,1l-.29,2.29a1.2,1.2,0,0,0,.79,1.3l6.73,2.2a1.92,1.92,0,0,1,1.29,1.79L39.6,69a.7.7,0,0,1-1.25.48l-3.14-4.31a2.38,2.38,0,0,0-2.64-.89l-3.07.95A2.17,2.17,0,0,0,28,67.3l0,2.39a3.75,3.75,0,0,0,1.71,3.12L33.22,75a.48.48,0,0,1-.32.89L30,75.53a4.45,4.45,0,0,1-3.63-3l-1.83-5.1a1.14,1.14,0,0,0-1.33-.75L22,67a1.24,1.24,0,0,0-.88,1.54l2.05,7.26a8.41,8.41,0,0,0,4.94,5.58l4.84,1.92a7.13,7.13,0,0,0,2.2.42h1.08a51.46,51.46,0,0,1,9.38,1l3.45.78a19.48,19.48,0,0,0,12.71-1.46l2.8-1.34A30,30,0,0,0,77.85,70.25h0a1.24,1.24,0,0,0-.34-1.6Z" stroke="none" fill="#2e997b" transform="matrix(2.3559587001800537, 0, 0, 2.3559587001800537, 137.78065490722656, 94.5848617553711)"/><path id="_KpbEtRPObQ7octvRVt6xW" d="M26.89,62l1-3.28A2.38,2.38,0,0,0,27,56l-3-2.05a4.52,4.52,0,0,1-1.9-4.23A9.31,9.31,0,0,1,25,43.89l1.65-1.54a3.27,3.27,0,0,0,.79-3.67l-.34-.8L28.52,37a4.91,4.91,0,0,1,4.5-.41l5,2.06a1.15,1.15,0,0,0,1.46-.56L41,35.16a1.23,1.23,0,0,0-.49-1.66l-6.23-3.26a6.53,6.53,0,0,0-6,0l-3.69,1.85a.26.26,0,0,1-.33-.37L25,30.55a12.72,12.72,0,0,1,5.18-5L33,24a1.25,1.25,0,0,0,.61-1.43l-.93-3.4a1.14,1.14,0,0,0-1.57-.77l-5.47,2.46a10.45,10.45,0,0,0-3.78,2.9l-3.13,3.8a18.51,18.51,0,0,0-3.36,6.22l-.33,1a21.9,21.9,0,0,0,1.46,17.43,2.22,2.22,0,0,1,.37,1.63L16.23,58a4.24,4.24,0,0,0,3.11,4.87l4.28,1A2.79,2.79,0,0,0,26.89,62Z" stroke="none" fill="#5c65cc" transform="matrix(2.3559587001800537, 0, 0, 2.3559587001800537, 137.06085205078125, 94.87202453613281)"/><path id="_Dzo4oPdtm03jIxYwBmCBx" d="M35.4,19.52a1.14,1.14,0,0,0,1.37.71L41.23,19a.32.32,0,0,1,.29.56l-1.7,2.67a5.14,5.14,0,0,0,.53,6.21,3.87,3.87,0,0,0,4.92,0l4.35-3.62a.93.93,0,0,1,1.52.42l1.19,3.91a.57.57,0,0,1-.56.74l-4.9-.32a1.19,1.19,0,0,0-1.2.89l-.22.77a1.21,1.21,0,0,0,.8,1.5l4.93,1.4A4.4,4.4,0,0,0,53.87,34l1.77-.63A1.39,1.39,0,0,0,56.54,32l-.15-4.57a.64.64,0,0,1,.83-.65l5.67,2a7.64,7.64,0,0,1,2.94,1.89L67.6,32.5a1.13,1.13,0,0,0,1.21.27L70,32.35a1.25,1.25,0,0,0,.64-1.75l-1.23-2.29A4.13,4.13,0,0,0,68,26.84l-3.21-2.18,3.64,1.52a3.46,3.46,0,0,1,1.67,1.48l3.23,5.65a1.13,1.13,0,0,0,1.44.49l2-.85a1.25,1.25,0,0,0,.64-1.61l-.75-2.21a21,21,0,0,0-5.23-8.29,15.71,15.71,0,0,0-10.2-4.43l-5.58-.27a16.91,16.91,0,0,1-3-.35L44.09,14a2.77,2.77,0,0,0-1.38.07l-7.16,2.21a1.24,1.24,0,0,0-.77,1.63Z" stroke="none" fill="#34a5cf" transform="matrix(2.3559587001800537, 0, 0, 2.3559587001800537, 138.67135620117188, 94.53549194335938)"/></g><path id="_R57GQfuf0kBfsEEsU0JZS" fill="#535766" transform="matrix(0.7075778873604983, 0, 0, 0.7075778873604983, 254.36508652997662, 359.7904682731012)" text="COMMUNITY" text-anchor="middle" font-size="100" letter-spacing="0" side="left" offset="0.5" dx="0" dy="0" space="preserve" href="" font-family="Lilita One" font-scale="contain" x="0" y="0" data-fl-textpath="" d="M-261.05-70.9Q-253.75000000000003-70.9 -248.20000000000005-68.85Q-242.65000000000003-66.8 -242.65000000000003-63.3Q-242.65000000000003-59.8 -245.30000000000004-54.65Q-247.95000000000005-49.5 -249.75000000000003-49.5L-249.75000000000003-49.5Q-250.25000000000003-49.5 -250.90000000000003-50.05Q-251.55000000000004-50.6 -253.90000000000003-51.25Q-256.25000000000006-51.9 -257.95000000000005-51.9L-257.95000000000005-51.9Q-263.75000000000006-51.9 -267.3-47.8Q-270.85-43.7 -270.85-35.25Q-270.85-26.8 -267.20000000000005-22.7Q-263.55-18.6 -257.95000000000005-18.6L-257.95000000000005-18.6Q-255.65000000000003-18.6 -252.80000000000004-19.25Q-249.95000000000005-19.9 -248.75000000000003-21.1L-248.75000000000003-21.1Q-248.55000000000004-21.3 -247.95000000000005-21.3Q-247.35000000000002-21.3 -245.70000000000005-19.05Q-244.05000000000004-16.8 -242.65000000000003-13.15Q-241.25000000000003-9.5 -241.25000000000003-7.5L-241.25000000000003-7.5Q-241.25000000000003-3.6 -247.25000000000003-1.3Q-253.25000000000003 1 -261.45000000000005 1L-261.45000000000005 1Q-274.65000000000003 1 -283.15000000000003-8.3Q-291.65000000000003-17.6 -291.65000000000003-34.55Q-291.65000000000003-51.5 -282.90000000000003-61.2Q-274.15000000000003-70.9 -261.05-70.9L-261.05-70.9ZM-203.80000000000004 1Q-217.85000000000005 1 -226.70000000000005-8.2Q-235.55000000000004-17.4 -235.55000000000004-35.05Q-235.55000000000004-52.7 -226.60000000000005-61.8Q-217.65000000000003-70.9 -203.50000000000006-70.9Q-189.35000000000002-70.9 -180.65000000000003-61.95Q-171.95000000000005-53 -171.95000000000005-34.85Q-171.95000000000005-16.7 -180.85000000000002-7.85Q-189.75000000000006 1 -203.80000000000004 1ZM-203.75000000000006-51.7Q-208.55000000000004-51.7 -211.80000000000004-47.3Q-215.05000000000004-42.9 -215.05000000000004-34.95Q-215.05000000000004-27 -211.95000000000005-22.75Q-208.85000000000005-18.5 -203.80000000000004-18.5Q-198.75000000000006-18.5 -195.60000000000002-22.8Q-192.45000000000005-27.1 -192.45000000000005-35.1Q-192.45000000000005-43.1 -195.70000000000005-47.4Q-198.95000000000005-51.7 -203.75000000000006-51.7ZM-93.95000000000005 0.1L-93.95000000000005 0.1Q-102.85000000000005 0.1 -102.85000000000005-1.9L-102.85000000000005-1.9L-104.95000000000005-42L-117.15000000000005-1.4Q-117.55000000000004-0.2 -123.95000000000005-0.2Q-130.35000000000005-0.2 -130.55000000000004-1.3L-130.55000000000004-1.3L-143.15000000000003-42.4L-144.55000000000004-2.5Q-144.65000000000003-1 -148.35000000000005-0.45Q-152.05000000000004 0.1 -154.50000000000006 0.1Q-156.95000000000005 0.1 -159.25000000000006-0.2L-159.25000000000006-0.2Q-164.05000000000004-0.9 -163.95000000000005-2.7L-163.95000000000005-2.7L-161.65000000000003-67.7Q-161.65000000000003-70.1 -149.45000000000005-70.1L-149.45000000000005-70.1Q-145.85000000000005-70.1 -140.65000000000003-69.55Q-135.45000000000005-69 -134.85000000000005-67.4L-134.85000000000005-67.4L-123.65000000000005-35.9L-113.85000000000005-67.5Q-112.95000000000005-70.1 -100.05000000000004-70.1L-100.05000000000004-70.1Q-96.35000000000005-70.1 -91.20000000000005-69.55Q-86.05000000000004-69 -86.05000000000004-67.6L-86.05000000000004-67.6L-83.15000000000005-2Q-83.15000000000005-0.9 -87.05000000000004-0.4Q-90.95000000000005 0.1 -93.95000000000005 0.1ZM-3.2500000000000426 0.1L-3.2500000000000426 0.1Q-12.150000000000048 0.1 -12.150000000000048-1.9L-12.150000000000048-1.9L-14.250000000000043-42L-26.450000000000045-1.4Q-26.850000000000044-0.2 -33.25000000000004-0.2Q-39.65000000000004-0.2 -39.850000000000044-1.3L-39.850000000000044-1.3L-52.450000000000045-42.4L-53.850000000000044-2.5Q-53.950000000000045-1 -57.65000000000004-0.45Q-61.350000000000044 0.1 -63.80000000000004 0.1Q-66.25000000000004 0.1 -68.55000000000004-0.2L-68.55000000000004-0.2Q-73.35000000000004-0.9 -73.25000000000004-2.7L-73.25000000000004-2.7L-70.95000000000005-67.7Q-70.95000000000005-70.1 -58.75000000000004-70.1L-58.75000000000004-70.1Q-55.15000000000004-70.1 -49.950000000000045-69.55Q-44.75000000000004-69 -44.15000000000004-67.4L-44.15000000000004-67.4L-32.950000000000045-35.9L-23.15000000000004-67.5Q-22.250000000000043-70.1 -9.350000000000037-70.1L-9.350000000000037-70.1Q-5.650000000000048-70.1 -0.5000000000000426-69.55Q 4.649999999999963-69  4.649999999999963-67.6L 4.649999999999963-67.6L 7.5499999999999545-2Q 7.5499999999999545-0.9  3.649999999999963-0.4Q-0.25000000000004263 0.1 -3.2500000000000426 0.1ZM 50.14999999999996-22.8L 50.14999999999996-68Q 50.14999999999996-70  60.99999999999996-70Q 71.84999999999997-70  71.84999999999997-68L 71.84999999999997-68L 71.84999999999997-22.1Q 71.84999999999997-11.9  64.54999999999997-5.45Q 57.24999999999996 1  44.39999999999996 1Q 31.549999999999965 1  23.499999999999964-5.65Q 15.449999999999964-12.3  15.449999999999964-23.6L 15.449999999999964-23.6L 15.449999999999964-67.9Q 15.449999999999964-69.9  26.29999999999996-69.9Q 37.14999999999996-69.9  37.14999999999996-67.9L 37.14999999999996-67.9L 37.14999999999996-22.8Q 37.14999999999996-20.8  39.249999999999964-19.6L 39.249999999999964-19.6Q 41.44999999999996-18.4  43.849999999999966-18.4Q 46.24999999999996-18.4  48.19999999999996-19.5Q 50.14999999999996-20.6  50.14999999999996-22.8L 50.14999999999996-22.8ZM 135.04999999999995-68.1L 135.04999999999995-2.2Q 135.04999999999995-0.1  125.64999999999998-0.1Q 116.24999999999997-0.1  115.44999999999997-1.6L 115.44999999999997-1.6L 98.74999999999997-32.8L 98.74999999999997-1.7Q 98.74999999999997 0.1  89.49999999999997 0.1Q 80.24999999999997 0.1  80.24999999999997-1.7L 80.24999999999997-1.7L 80.24999999999997-68.6Q 80.24999999999997-70.1  88.14999999999998-70.1L 88.14999999999998-70.1Q 91.24999999999997-70.1  95.39999999999998-69.55Q 99.54999999999997-69  100.44999999999997-67.5L 100.44999999999997-67.5L 116.44999999999997-36.7L 116.44999999999997-68.1Q 116.44999999999997-70  125.74999999999997-70Q 135.04999999999995-70  135.04999999999995-68.1L 135.04999999999995-68.1ZM 144.74999999999994-17.2L 151.64999999999995-17.2L 151.64999999999995-52.8L 144.54999999999995-52.8Q 142.84999999999997-52.8  142.14999999999995-57.1L 142.14999999999995-57.1Q 141.84999999999997-59.2  141.84999999999997-61.4Q 141.84999999999997-63.6  142.14999999999995-65.7L 142.14999999999995-65.7Q 142.84999999999997-70  144.54999999999995-70L 144.54999999999995-70L 178.14999999999995-70Q 179.84999999999997-70  180.44999999999996-65.7L 180.44999999999996-65.7Q 180.84999999999997-63.6  180.84999999999997-61.4Q 180.84999999999997-59.2  180.44999999999996-57.1L 180.44999999999996-57.1Q 179.84999999999997-52.8  178.14999999999995-52.8L 178.14999999999995-52.8L 171.44999999999996-52.8L 171.44999999999996-17.2L 178.44999999999996-17.2Q 180.14999999999995-17.2  180.84999999999997-12.9L 180.84999999999997-12.9Q 181.24999999999994-10.8  181.24999999999994-8.6Q 181.24999999999994-6.4  180.84999999999997-4.3L 180.84999999999997-4.3Q 180.14999999999995 0  178.44999999999996 0L 178.44999999999996 0L 144.74999999999994 0Q 143.04999999999995 0  142.44999999999996-4.3L 142.44999999999996-4.3Q 142.04999999999995-6.4  142.04999999999995-8.6Q 142.04999999999995-10.8  142.44999999999996-12.9L 142.44999999999996-12.9Q 143.04999999999995-17.2  144.74999999999994-17.2L 144.74999999999994-17.2ZM 218.04999999999995-51.8L 218.04999999999995-1.6Q 218.04999999999995 0.4  208.14999999999995 0.4Q 198.24999999999997 0.4  198.24999999999997-1.6L 198.24999999999997-1.6L 198.24999999999997-51.8L 186.24999999999997-51.8Q 184.54999999999995-51.8  183.84999999999997-56.4L 183.84999999999997-56.4Q 183.54999999999995-58.6  183.54999999999995-60.9Q 183.54999999999995-63.2  183.84999999999997-65.4L 183.84999999999997-65.4Q 184.54999999999995-70  186.24999999999997-70L 186.24999999999997-70L 229.74999999999994-70Q 231.44999999999996-70  232.14999999999998-65.4L 232.14999999999998-65.4Q 232.44999999999996-63.2  232.44999999999996-60.9Q 232.44999999999996-58.6  232.14999999999998-56.4L 232.14999999999998-56.4Q 231.44999999999996-51.8  229.74999999999994-51.8L 229.74999999999994-51.8L 218.04999999999995-51.8ZM 264.54999999999995-46.3L 272.95-66.7Q 274.25-70.2  285.75-70.2L 285.75-70.2Q 288.65-70.2  292.59999999999997-69.8Q 296.54999999999995-69.4  296.25-68.8L 296.25-68.8L 275.45-27L 275.45-2.6Q 275.45-0.9  269.95-0.2L 269.95-0.2Q 267.15 0.2  264.45 0.2Q 261.75 0.2  259.04999999999995-0.1L 259.04999999999995-0.1Q 253.54999999999998-0.8  253.54999999999998-2.6L 253.54999999999998-2.6L 253.54999999999998-26.4L 232.04999999999998-68.6Q 231.64999999999998-69.2  236.14999999999998-69.75Q 240.64999999999998-70.3  243.74999999999997-70.3L 243.74999999999997-70.3Q 256.04999999999995-70.3  257.25-66.7L 257.25-66.7L 264.54999999999995-46.3Z"/></svg>